<?xml version="1.0" encoding="UTF-8"?>
<!DOCTYPE svg PUBLIC "-//W3C//DTD SVG 1.1//EN" "http://www.w3.org/Graphics/SVG/1.1/DTD/svg11.dtd">
<!-- Creator: CorelDRAW -->
<svg xmlns="http://www.w3.org/2000/svg" xml:space="preserve" width="210mm" height="297mm" version="1.1" style="shape-rendering:geometricPrecision; text-rendering:geometricPrecision; image-rendering:optimizeQuality; fill-rule:evenodd; clip-rule:evenodd"
viewBox="0 0 21000 29700"
 xmlns:xlink="http://www.w3.org/1999/xlink"
 xmlns:xodm="http://www.corel.com/coreldraw/odm/2003">
 <defs>
  <style type="text/css">
   <![CDATA[
    .str2 {stroke:#27867A;stroke-width:52.92;stroke-miterlimit:22.9256}
    .str1 {stroke:#528D24;stroke-width:20;stroke-miterlimit:22.9256}
    .str0 {stroke:#64933C;stroke-width:20;stroke-miterlimit:22.9256}
    .fil2 {fill:none}
    .fil3 {fill:#64933C}
    .fil4 {fill:#8C6B4C}
    .fil5 {fill:#C2A172}
    .fil1 {fill:#E6B556}
    .fil6 {fill:white}
    .fil0 {fill:url(#id0);fill-rule:nonzero}
   ]]>
  </style>
  <linearGradient id="id0" gradientUnits="userSpaceOnUse" x1="2441.33" y1="4295.93" x2="5718.73" y2="3411.57">
   <stop offset="0" style="stop-opacity:1; stop-color:#208480"/>
   <stop offset="0.909804" style="stop-opacity:1; stop-color:#589453"/>
   <stop offset="1" style="stop-opacity:1; stop-color:#90A425"/>
  </linearGradient>
 </defs>
 <g id="圖層_x0020_1">
  <metadata id="CorelCorpID_0Corel-Layer"/>
  <g id="_1419946852880">
   <path class="fil0" d="M4559.4 2222.12c27.72,7.07 44.46,35.27 37.39,62.99 -7.07,27.72 -35.28,44.46 -63,37.39 -1.43,-0.36 -493.7,-129.74 -1002.89,22.76 -91.8,27.5 -181.11,63 -269.68,110.05 -89.08,47.31 -176.95,105.92 -265.27,179.3 -28.61,23.77 -58.4,52.82 -87.53,85.52 -28.18,31.65 -54.9,65.83 -78.38,100.98l-7.64 11.41c-26.34,39.26 -50.94,75.91 -67.57,121.2 -9.87,26.94 -39.71,40.77 -66.65,30.89 -26.94,-9.87 -40.76,-39.72 -30.89,-66.65 20.67,-56.3 48.81,-98.24 78.95,-143.15l7.64 -11.41c26.73,-40.01 56.32,-78 86.91,-112.36 31.67,-35.56 65.36,-68.21 98.91,-96.09 95.02,-78.94 188.62,-141.5 282.75,-191.5 94.63,-50.26 190.28,-88.26 288.78,-117.76 536.45,-160.67 1056.66,-23.96 1058.17,-23.57zm-1038.31 89.39c-3.14,-28.51 17.42,-54.16 45.93,-57.31 28.5,-3.14 54.16,17.43 57.3,45.93 0.16,1.46 62.09,505.75 -459.65,673.9 -234.58,75.6 -376.07,141.79 -465.72,208.15 -84.16,62.3 -121.78,125.65 -150.41,198.54 -34.44,87.68 -65.1,221.24 -62.85,366.97 1.67,108.7 21.85,223.98 72.84,331.34 12.23,25.92 1.14,56.86 -24.79,69.09 -25.92,12.23 -56.86,1.13 -69.09,-24.8 -57.84,-121.76 -80.71,-251.95 -82.6,-374.41 -2.48,-160.82 31.54,-308.7 69.76,-405.99 35.08,-89.31 81.36,-167.08 185.37,-244.06 98.52,-72.92 249.49,-144.21 495.79,-223.59 439.98,-141.8 388.25,-562.55 388.12,-563.76zm-644.42 902.14c-11.34,-26.26 0.76,-56.74 27.02,-68.07 26.27,-11.34 56.75,0.76 68.08,27.02 35.29,81.3 81.44,227.86 56.11,400.14 -16.84,114.55 -64.95,240.05 -168.17,364.6 -129.35,162.5 -192,292.33 -210.49,405.77 -17.96,110.2 6.25,207.59 51.06,306.55 45.41,100.26 99.67,172.41 166.42,230.73 67.77,59.21 150.31,105.75 250.37,153.52 25.92,12.35 36.93,43.37 24.59,69.3 -12.35,25.92 -43.37,36.93 -69.3,24.59 -107.34,-51.25 -197.02,-102.17 -273.94,-169.38 -77.96,-68.12 -140.89,-151.4 -192.83,-266.09 -52.53,-115.99 -80.67,-231.63 -58.79,-365.88 21.33,-130.82 90.55,-276.68 232.23,-454.54l0.61 -0.82c89.5,-107.99 131.05,-215.67 145.41,-313.39 21.75,-147.91 -18,-274.04 -48.38,-344.05zm2670.08 -23.4c-13.24,-25.47 -3.32,-56.86 22.15,-70.11 25.48,-13.24 56.87,-3.32 70.11,22.16 33.98,65.24 63.56,142.91 86.59,230.41 21.66,82.35 37.48,173.09 45.59,269.97 23.56,281.17 -12.72,554.8 -108.17,805.32 -93.11,244.39 -242.66,466.64 -448,652.32 -90.5,81.82 -187.85,154.68 -286.66,213.74 -96.33,57.57 -194.53,102.35 -289.75,129.98 -94.09,27.29 -192.27,51.73 -291.85,69.01 -100.47,17.43 -203.53,27.81 -307.06,26.88 -232.59,-2.1 -466.82,-46.73 -648.14,-140.11 -163.53,-84.23 -285.07,-207.91 -327.35,-375.77 -23.13,-91.83 -34.9,-152.63 -44.93,-204.41 -15.78,-81.58 -27.04,-139.69 -75.86,-271.77 -20.62,-55.8 -47.82,-101.71 -79.73,-139.94 -32,-38.32 -68.98,-69.24 -108.99,-94.85 -24.13,-15.49 -31.14,-47.61 -15.65,-71.74 15.49,-24.12 47.61,-31.13 71.74,-15.64 48.43,30.99 93.36,68.64 132.56,115.58 39.28,47.05 72.6,103.13 97.62,170.83 51.59,139.57 63.55,201.33 80.32,288.02 9.69,50.05 21.07,108.84 43.71,198.72 34.2,135.74 136.13,237.64 274.12,308.71 166.52,85.76 384.05,126.77 601.4,128.73 95.87,0.86 192.99,-9.04 288.76,-25.66 96.67,-16.77 190.84,-40.17 280.48,-66.17 86.38,-25.06 176.35,-66.21 265.36,-119.41 93.36,-55.8 185.19,-124.5 270.4,-201.55 192.52,-174.07 332.84,-382.76 420.36,-612.49 89.84,-235.8 123.94,-493.97 101.67,-759.8 -7.65,-91.33 -22.32,-176.01 -42.34,-252.08 -20.9,-79.42 -47.7,-149.82 -78.46,-208.88zm-2471.63 1823.3c0.71,0.41 245.9,146.37 635.86,71.81 268.56,-51.34 354.22,-7.14 481.04,58.3 71.32,36.8 157.24,81.15 307.59,116.08 73.96,17.18 143.18,20.59 211.86,9.9 69.56,-10.82 139.71,-36.13 214.7,-76.21l48.77 91.45c-85.24,45.56 -166.11,74.5 -247.62,87.18 -82.39,12.82 -164.34,8.99 -250.88,-11.12 -163.19,-37.92 -255.42,-85.51 -331.98,-125.02 -107.76,-55.61 -180.56,-93.17 -413.97,-48.55 -428.47,81.92 -706.59,-83.53 -707.4,-84.01l52.03 -89.81zm-44.33 -2418.29l241.79 235.89 -57.88 59.5 -241.78 -235.89 57.87 -59.5zm202.87 -157.57l272.02 265.39 -57.88 59.49 -272.02 -265.38 57.88 -59.5zm-696.36 780.91l468.43 132.88 -22.43 79.98 -468.43 -132.87 22.43 -79.99zm-107.04 322.44l481.98 69.16 -11.7 82.26 -481.98 -69.15 11.7 -82.27zm39.31 325.86l297.59 69.15 -18.54 80.96 -297.59 -69.15 18.54 -80.96zm132.05 660.01l292.38 -143.86 36.74 74.46 -292.38 143.86 -36.74 -74.46zm109.31 231.23l274.1 -176.22 44.87 69.9 -274.09 176.22 -44.88 -69.9zm791.45 557.94c129.38,-44.6 428.72,-59.78 565.84,-7.16 98.98,37.99 165.4,81.39 200.63,94.53 354.06,132.02 -1177.54,1.41 -766.47,-87.37z"/>
   <g>
    <path class="fil1" d="M4870.84 2734.89c-87.63,-13.06 -167.75,18.2 -215.11,59.35 -54.16,47.06 -86.17,101.35 -97.9,174.94 -12.17,76.33 11.14,149.51 46.67,193.52 46.6,57.72 97.7,102.64 186.54,113.56 248.07,30.48 378.71,-227.18 280.42,-400.62 -0.61,-1.07 -1.42,-2.67 -2.02,-3.75 -36.09,-65.36 -110.16,-123.83 -198.6,-137z"/>
    <path class="fil1" d="M5318.15 2713.22c-78.58,19.84 -101.67,48.97 -134.99,66.07 -22.24,11.42 -49.97,7.57 -61.8,38.21 -12.6,32.65 15.36,59.12 47.38,56.78 10.92,-0.79 185.68,-88.11 195.92,-108.58 16.14,-32.26 -10.02,-61.69 -46.51,-52.48z"/>
    <path class="fil1" d="M4567.13 2470.6c-55.53,44.44 -36.17,41.74 -9.76,95.1 28.41,57.41 54.07,155.37 102.71,155.54 84.87,0.31 2.81,-116.83 -1.84,-126.19 -26.91,-54.19 -37.18,-110.8 -91.11,-124.45z"/>
    <path class="fil1" d="M4484.83 3030.78c44.17,-79.01 -14.13,-79.56 -78.37,-79.68 -28.56,-0.06 -135.77,-3.9 -152.25,5.82 -25.48,15.01 -20.89,53.01 -0.36,65.52 18.09,11.02 207.5,13.9 230.98,8.34z"/>
    <path class="fil1" d="M4538.04 3217.1c-3.1,-90.47 -53.27,-60.76 -108.3,-27.62 -24.46,14.74 -118.18,66.95 -127.26,83.79 -14.02,26.03 9.57,56.17 33.61,56.25 21.18,0.07 184.74,-95.51 201.95,-112.42z"/>
    <path class="fil1" d="M5092.32 3542.72c32.49,-30.01 36.13,-23.15 20.81,-67.74 -16.83,-48.97 -34.88,-54.45 -65.78,-129.31 -7.7,-18.65 -16.77,-52.88 -55.3,-48.2 -32.07,3.9 -40.18,37.8 -29.83,63.29 7.44,18.32 24.51,45.44 34.96,63.96 13.02,23.09 22.81,40.18 35.34,63.37l15.15 30.93c13.7,23.98 15.53,19.21 44.65,23.7z"/>
    <path class="fil1" d="M4522.61 2854.78c31.2,-10.95 31.12,-19.99 36.52,-55.1 -28.04,-26.02 -69.67,-48.7 -108.67,-73.19 -33.86,-21.26 -95.37,-75.81 -123.41,-31.71 -29.17,45.89 39.14,72.76 73.26,93.3 34.22,20.61 86.72,62.79 122.3,66.7z"/>
    <path class="fil1" d="M5387.32 2998.2c-50.6,-6.87 -105.52,-5.56 -157.89,-11.23 -30.68,-3.33 -50.49,-6.21 -62.77,22.05 -14.83,34.12 2.39,50.66 38.17,55.14 46.91,5.86 108.95,8.62 156.04,11.82 88.83,6.04 76.64,-70.96 26.45,-77.78z"/>
    <path class="fil1" d="M4840.23 2425.31c-21.98,9.19 -27.34,7.03 -29.51,60.43 -0.99,24.31 -2.49,49.71 -3.92,74.28 -2.26,38.81 -16.22,136.51 55.44,103.49 40.1,-18.48 31.74,-155 28.55,-203.3 -2.49,-37.7 -24.33,-45.86 -50.56,-34.9z"/>
    <path class="fil1" d="M5143.85 3169.18c-25.77,3.28 -46.34,23.43 -36.29,53.09 8.05,23.75 174.36,125.25 191.76,124.86 31.3,-0.69 42.87,-35.27 29.93,-57.22 -7.71,-13.09 -46.82,-35.52 -61.84,-45.52 -24.7,-16.46 -99.13,-78.32 -123.56,-75.21z"/>
    <path class="fil1" d="M5135.89 2507.82c-32.98,-1.72 -34.29,13.93 -54.86,41.08l-87.61 117.4c-14.35,28.05 -2.23,54.34 28.77,60.03 35.83,6.58 62.37,-53 100.51,-101.19 23.05,-29.13 85.03,-113.56 13.19,-117.32z"/>
   </g>
   <g>
    <line class="fil2 str0" x1="5287.56" y1="3820.93" x2="5368.59" y2= "4078.41" />
    <g>
     <line class="fil2 str0" x1="5113.03" y1="4273.62" x2="5368.59" y2= "4078.41" />
     <line class="fil2 str0" x1="5368.59" y1="4078.41" x2="5359.03" y2= "4341.29" />
     <line class="fil2 str1" x1="5087.24" y1="4465.94" x2="5113.03" y2= "4273.62" />
     <line class="fil2 str0" x1="4826.18" y1="4193.7" x2="4988.26" y2= "3978.05" />
     <line class="fil2 str0" x1="5113.03" y1="4273.62" x2="4988.26" y2= "3978.05" />
     <line class="fil2 str0" x1="4750.74" y1="4428.05" x2="4826.18" y2= "4193.7" />
     <line class="fil2 str0" x1="4586.32" y1="4223.28" x2="4826.18" y2= "4193.7" />
     <line class="fil2 str0" x1="5287.56" y1="3820.93" x2="5524.75" y2= "3737.43" />
     <line class="fil2 str0" x1="4988.26" y1="3978.05" x2="5287.56" y2= "3820.93" />
     <line class="fil2 str0" x1="4988.26" y1="3978.05" x2="5368.59" y2= "4078.41" />
     <path class="fil3" d="M5014.73 3869.97c59.69,14.62 96.23,74.86 81.61,134.55 -14.62,59.7 -74.86,96.24 -134.55,81.62 -59.69,-14.62 -96.23,-74.86 -81.62,-134.56 14.62,-59.69 74.86,-96.23 134.56,-81.61z"/>
     <path class="fil3" d="M5133.89 4188.42c47.05,11.53 75.86,59.01 64.33,106.07 -11.52,47.05 -59.01,75.86 -106.06,64.33 -47.06,-11.52 -75.86,-59.01 -64.34,-106.06 11.53,-47.06 59.01,-75.86 106.07,-64.34z"/>
     <path class="fil3" d="M5306.97 3741.68c43.76,10.72 70.56,54.89 59.84,98.65 -10.72,43.77 -54.89,70.56 -98.66,59.85 -43.77,-10.72 -70.56,-54.89 -59.84,-98.66 10.72,-43.77 54.89,-70.56 98.66,-59.84z"/>
     <path class="fil3" d="M5387.99 3999.16c43.77,10.72 70.56,54.89 59.84,98.66 -10.71,43.77 -54.88,70.56 -98.65,59.84 -43.77,-10.72 -70.56,-54.89 -59.84,-98.66 10.72,-43.77 54.89,-70.56 98.65,-59.84z"/>
     <path class="fil3" d="M4839.42 4139.66c29.84,7.31 48.11,37.43 40.8,67.28 -7.3,29.84 -37.43,48.11 -67.27,40.8 -29.85,-7.31 -48.12,-37.43 -40.81,-67.27 7.31,-29.85 37.43,-48.12 67.28,-40.81z"/>
     <path class="fil3" d="M5369.49 4298.56c23.6,5.78 38.04,29.59 32.26,53.19 -5.78,23.6 -29.59,38.04 -53.19,32.26 -23.59,-5.78 -38.04,-29.59 -32.26,-53.19 5.78,-23.59 29.59,-38.04 53.19,-32.26z"/>
     <path class="fil3" d="M5535.21 3694.71c23.59,5.78 38.04,29.59 32.26,53.19 -5.78,23.59 -29.59,38.04 -53.19,32.26 -23.6,-5.78 -38.04,-29.59 -32.26,-53.19 5.78,-23.6 29.59,-38.04 53.19,-32.26z"/>
     <path class="fil3" d="M4596.78 4180.55c23.6,5.78 38.04,29.59 32.26,53.19 -5.77,23.6 -29.59,38.04 -53.18,32.26 -23.6,-5.78 -38.05,-29.59 -32.27,-53.19 5.78,-23.59 29.6,-38.04 53.19,-32.26z"/>
     <path class="fil3" d="M4763.79 4374.76c29.42,7.21 47.44,36.91 40.23,66.33 -7.21,29.43 -36.9,47.44 -66.33,40.23 -29.42,-7.2 -47.44,-36.9 -40.23,-66.32 7.21,-29.43 36.9,-47.44 66.33,-40.24z"/>
     <path class="fil3" d="M5100.29 4412.66c29.42,7.2 47.43,36.9 40.23,66.32 -7.21,29.43 -36.9,47.44 -66.33,40.24 -29.43,-7.21 -47.44,-36.91 -40.23,-66.33 7.2,-29.43 36.9,-47.44 66.33,-40.23z"/>
    </g>
   </g>
   <path class="fil4" d="M5376.81 4626.51c-695.63,99.14 -657.75,-42.72 -1283.33,-128.34 -282.1,-38.6 -808.56,194.11 -849.24,326.38 -25.6,81.02 8.46,179.97 107.94,193.1 411.12,54.27 374.67,-108.77 757.26,-1.18 150.05,42.63 249.12,123.92 426.25,145.27 372.05,39.4 623.7,-205.22 841.12,-535.23z"/>
   <path class="fil3" d="M4224.68 4030.46c11.1,-68.34 48.69,-160.03 96.47,-202.77 14.13,-12.64 23.55,-20.21 37.16,-36.49 19.28,-23.06 107.15,-81.88 138.26,-94.57 -6.66,8.88 -1.64,2.95 -10.2,10.56l-19.11 16.29c-35.24,36.58 -62.58,51.47 -87.37,83.52 -6.09,7.87 -8.74,12.66 -15.09,19.3l-53.15 60.58c-11,14.38 -20.12,28.29 -30.48,43.82l-56.49 99.76zm-183.98 -66.06c-25.35,-88.62 -125.26,-243.56 -174.54,-309.37l-175.14 -203.38c23.25,20.7 40.08,27.22 64.24,46.59 54.61,43.8 79.37,79.43 111.66,104.34l96.86 119.06c11.96,18.17 28.62,45.17 40.67,67.04 25.1,45.57 46.94,116.57 36.25,175.72zm-26.76 626.73c-21.7,13.49 -24.88,23.43 -22.2,51.37 33.42,22.54 105.41,-16.58 142.31,-15.27 45.41,1.62 91.71,38.75 143.59,27.58 12.67,-50.27 -11.25,-50.1 -68.88,-78.12 -1.23,-0.6 -2.72,-1.23 -3.97,-1.82 -52.89,-23.06 4.86,-401.58 39.02,-454.93 81.44,-127.15 162.91,9.48 367.33,-218.96 74.21,-82.93 148.49,-335.78 156.63,-435.42 -205.2,11.95 -457.24,117.42 -539.55,287.33 -19.42,40.09 -34.5,74.25 -43.52,122.35 -11.16,59.58 -7.57,99.79 -3.71,159.9 3.63,56.42 -9.26,79.89 -33.99,125.34 -8.38,-52.36 -39.08,-112.79 -51.8,-169.63 -43.26,-193.31 74.69,-340.38 -147.73,-559.56 -35.9,-35.39 -51.24,-49.55 -89.06,-82.57 -115.85,-101.17 -332.08,-160.73 -487.75,-180.91 27.53,148.36 92.23,442.08 183.05,565.3 161.17,218.64 350.94,179.11 409.58,212.23 67.12,37.91 192.34,557.69 50.65,645.79z"/>
   <circle class="fil5" cx="3732.16" cy="4781.37" r="54.85"/>
   <circle class="fil5" cx="4837.77" cy="4908.18" r="54.85"/>
   <circle class="fil5" cx="4213.71" cy="4871.81" r="54.85"/>
   <circle class="fil5" cx="4536.85" cy="4738.11" r="45.39"/>
   <circle class="fil6 str2" cx="2685.07" cy="3610.28" r="57.91"/>
   <circle class="fil6 str2" cx="3111.7" cy="2730.68" r="57.91"/>
  </g>
 </g>
</svg>
